Hardcore Innocence 2 (2001)

Cover: 
http://imagebb.org/view.php?filename=867hardcoreinnocence22001.jpg

Preview: 
http://imagebb.org/view.php?filename=730Hardcore_Innocence_2_S.jpg - Scene 1 
http://imagebb.org/view.php?filename=553Hardcore_Innocence_2_S.jpg - Scene 2 
http://imagebb.org/view.php?filename=357Hardcore_Innocence_2_S.jpg - Scene 3 
http://imagebb.org/view.php?filename=643Hardcore_Innocence_2_S.jpg - Scene 4 
http://imagebb.org/view.php?filename=105Hardcore_Innocence_2_S.jpg - Scene 5

Info Scene 1:
Format                           : Windows Media
File size                        : 131 MiB
Duration                         : 19mn 44s
Overall bit rate mode            : Variable
Overall bit rate                 : 927 Kbps
Maximum Overall bit rate         : 1 463 Kbps
Movie name                       : Hardcore Innocence #2
Encoded date                     : UTC 2010-02-07 08:02:42.265

Video
ID                               : 2
Format                           : WMV2
Codec ID                         : WMV2
Codec ID/Info                    : Windows Media Video 8
Description of the codec         : Windows Media Video V8
Duration                         : 19mn 44s
Bit rate mode                    : Variable
Bit rate                         : 787 Kbps
Width                            : 480 pixels
Height                           : 352 pixels
Display aspect ratio             : 4:3
Frame rate                       : 29.970 fps
Bit depth                        : 8 bits
Bits/(Pixel*Frame)               : 0.155
Stream size                      : 111 MiB (85%)
Language                         : English (US)

Audio
ID                               : 1
Format                           : WMA
Format version                   : Version 2
Codec ID                         : 161
Codec ID/Info                    : Windows Media Audio
Description of the codec         : Windows Media Audio 9.2 - 128 kbps, 48 kHz, stereo (A/V) 1-pass CBR
Duration                         : 19mn 44s
Bit rate mode                    : Constant
Bit rate                         : 128 Kbps
Channel(s)                       : 2 channels
Sampling rate                    : 48.0 KHz
Bit depth                        : 16 bits
Stream size                      : 18.1 MiB (14%)
Language                         : English (US)

